<svg width="55" height="42" viewBox="0 0 55 42" fill="none" xmlns="http://www.w3.org/2000/svg">
<g id="Group 13943">
<g id="Group">
<path id="Vector" d="M14.1702 24.5524C17.4115 24.5524 20.0392 21.9248 20.0392 18.6834C20.0392 15.4421 17.4115 12.8145 14.1702 12.8145C10.9288 12.8145 8.30122 15.4421 8.30122 18.6834C8.30122 21.9248 10.9288 24.5524 14.1702 24.5524Z" stroke="#10385B" stroke-width="2" stroke-miterlimit="10" stroke-linecap="round" stroke-linejoin="round"/>
<path id="Vector_2" d="M1 40.8706C1 33.5701 6.86896 27.7012 14.1694 27.7012C21.4698 27.7012 27.3388 33.5701 27.3388 40.8706" stroke="#10385B" stroke-width="2" stroke-miterlimit="10" stroke-linecap="round" stroke-linejoin="round"/>
</g>
<path id="Vector_3" d="M29.3275 19.945C29.6318 19.6193 29.8968 19.2886 30.1324 18.9579C27.6832 17.0539 26.1715 14.4384 26.1715 11.5523C26.1715 5.72497 32.3363 1 39.9392 1C47.5421 1 53.7119 5.72497 53.7119 11.5523C53.7119 17.3796 47.5471 22.1045 39.9392 22.1045C37.9268 22.1045 36.0175 21.7739 34.2947 21.1826C34.1229 21.2828 33.9462 21.383 33.7646 21.4832C29.995 23.4624 26.4512 22.7058 25.5383 22.4854C26.4218 22.1496 27.9384 21.4381 29.3275 19.955V19.945Z" stroke="#1FD4F6" stroke-width="2" stroke-linecap="round" stroke-linejoin="round"/>
</g>
</svg>
