<svg width="74" height="54" viewBox="0 0 74 54" fill="none" xmlns="http://www.w3.org/2000/svg">
<g id="Group 13910">
<path id="Vector" d="M49.1467 22.6897C55.2052 22.6897 60.1097 17.7852 60.1097 11.7267C60.1097 5.66818 55.2052 0.763672 49.1467 0.763672C43.0882 0.763672 38.1837 5.66818 38.1837 11.7267C38.1837 17.7852 43.0882 22.6897 49.1467 22.6897Z" fill="#EEB1CE"/>
<path id="Vector_2" d="M24.5558 53.1687C24.5558 39.5413 35.5188 28.5783 49.1462 28.5783C62.7736 28.5783 73.7366 39.5413 73.7366 53.1687" fill="#EEB1CE"/>
<path id="Vector_3" d="M19.4828 23.5047C24.0649 23.5047 27.7645 19.7882 27.7645 15.2231C27.7645 10.658 24.0479 6.94141 19.4828 6.94141C14.9177 6.94141 11.2012 10.658 11.2012 15.2231C11.2012 19.7882 14.9177 23.5047 19.4828 23.5047Z" fill="#CDB9E7"/>
<path id="Vector_4" d="M18.1925 46.4998H0.763672C0.763672 36.0799 9.04533 27.7812 19.4823 27.7812C22.1636 27.7812 24.5565 28.3243 26.6948 29.1219C24.9129 30.6493 21.8412 33.704 19.9065 38.5576C18.6507 41.6802 18.2774 44.5143 18.1925 46.4998Z" fill="#CDB9E7"/>
</g>
</svg>
