<svg width="64" height="56" viewBox="0 0 64 56" fill="none" xmlns="http://www.w3.org/2000/svg">
<g id="Group">
<path id="Vector" d="M63.389 17.364V50.4567C63.389 53.0702 61.4034 55.0218 58.9936 55.0218H4.97608C2.56625 55.0218 0.597656 53.0702 0.597656 50.6773V17.364C0.597656 14.9712 2.56625 13.0195 4.97608 13.0195H58.9936C61.4034 13.0195 63.389 14.9712 63.389 17.364Z" fill="#D7B380"/>
<path id="Vector_2" d="M29.1422 31.3006C29.1422 32.2509 28.3786 32.9976 27.4452 32.9976H0.597656V29.6035H27.4452C28.3786 29.6035 29.1422 30.3672 29.1422 31.3006Z" fill="#B99163"/>
<path id="Vector_3" d="M63.3886 29.6035V32.9976H38.7981C38.7981 32.9976 38.7472 32.9976 38.7133 32.9807C37.8138 32.9467 37.1011 32.217 37.1011 31.3006C37.1011 30.3842 37.8478 29.6205 38.7812 29.6035H63.3886Z" fill="#B99163"/>
<path id="Vector_4" d="M36.6093 34.5771H27.3943C26.2912 34.5771 25.2051 33.7116 25.2051 32.4049V29.7914C25.2051 28.7053 26.0876 27.6191 27.3943 27.6191H36.6093C37.7124 27.6191 38.7985 28.4846 38.7985 29.7914V32.4049C38.7985 33.7116 37.6955 34.5771 36.6093 34.5771Z" fill="white"/>
<path id="Vector_5" d="M45.2141 14.2952H19.0285C18.0951 14.2952 17.3314 13.5315 17.3314 12.5981V8.6949C17.3314 4.02798 21.3025 0.226562 26.1731 0.226562H38.0695C42.9401 0.226562 46.9112 4.02798 46.9112 8.6949V12.5981C46.9112 13.5315 46.1475 14.2952 45.2141 14.2952ZM20.7255 10.9011H43.5171V8.6949C43.5171 5.94566 41.0224 3.62069 38.0695 3.62069H26.1731C23.2202 3.62069 20.7255 5.94566 20.7255 8.6949V10.9011Z" fill="#B99163"/>
</g>
</svg>
