<svg width="51" height="65" viewBox="0 0 51 65" fill="none" xmlns="http://www.w3.org/2000/svg">
<g id="Group 13911">
<path id="Vector" d="M50.452 7.89082V62.2817C50.452 63.7242 49.281 64.8951 47.8385 64.8951H3.00216C1.55966 64.8951 0.388672 63.7242 0.388672 62.2817V7.89082C0.388672 6.44832 1.55966 5.27734 3.00216 5.27734H47.8385C49.281 5.27734 50.452 6.44832 50.452 7.89082Z" fill="#C0CDFC"/>
<path id="Vector_2" d="M37.9949 0.40625H12.8274C11.945 0.40625 11.2322 1.11902 11.2322 2.00149V9.19703C11.2322 10.0795 11.945 10.7923 12.8274 10.7923H37.9949C38.8774 10.7923 39.5901 10.0795 39.5901 9.19703V2.00149C39.5901 1.11902 38.8774 0.40625 37.9949 0.40625Z" fill="#9FB5EB"/>
<path id="Vector_3" d="M42.3749 27.9156H24.1145C23.1812 27.9156 22.4175 27.1519 22.4175 26.2185C22.4175 25.2852 23.1812 24.5215 24.1145 24.5215H42.3749C43.3083 24.5215 44.072 25.2852 44.072 26.2185C44.072 27.1519 43.3083 27.9156 42.3749 27.9156Z" fill="white"/>
<path id="Vector_4" d="M42.3749 43.273H24.1145C23.1812 43.273 22.4175 42.5094 22.4175 41.576C22.4175 40.6426 23.1812 39.8789 24.1145 39.8789H42.3749C43.3083 39.8789 44.072 40.6426 44.072 41.576C44.072 42.5094 43.3083 43.273 42.3749 43.273Z" fill="white"/>
<path id="Vector_5" d="M11.5215 31.5477C11.0803 31.5477 10.6561 31.378 10.3166 31.0555L7.27889 28.0178C6.61704 27.3559 6.61704 26.2868 7.27889 25.6249C7.94075 24.9631 9.0099 24.9631 9.67176 25.6249L11.5215 27.4747L17.5801 21.4162C18.2419 20.7544 19.3111 20.7544 19.9729 21.4162C20.6348 22.0781 20.6348 23.1472 19.9729 23.8091L12.7095 31.0725C12.3701 31.4119 11.9458 31.5647 11.5046 31.5647L11.5215 31.5477Z" fill="white"/>
<path id="Vector_6" d="M11.5215 46.9042C11.0633 46.9042 10.6391 46.7175 10.3166 46.4121L7.27889 43.3573C6.61704 42.6955 6.61704 41.6263 7.27889 40.9645C7.94075 40.3026 9.0099 40.3026 9.67176 40.9645L11.5215 42.8143L17.5801 36.7388C18.2419 36.077 19.3111 36.077 19.9729 36.7388C20.6348 37.4007 20.6348 38.4698 19.9729 39.1317L12.7095 46.3951C12.3871 46.7175 11.9628 46.8872 11.5046 46.8872L11.5215 46.9042Z" fill="white"/>
</g>
</svg>
