<svg width="57" height="62" viewBox="0 0 57 62" fill="none" xmlns="http://www.w3.org/2000/svg">
<g id="Group 13909">
<path id="Vector" d="M45.6061 26.9863H52.2455C53.153 26.9863 53.8789 27.7123 53.8789 28.6197V60.2441C53.8789 61.1516 53.153 61.8775 52.2455 61.8775H45.6061C44.6986 61.8775 43.9727 61.1516 43.9727 60.2441V28.6197C43.9727 27.7123 44.6986 26.9863 45.6061 26.9863Z" fill="#AFE2B8"/>
<path id="Vector_2" d="M28.0159 35.0742H24.7189C23.8114 35.0742 23.0854 35.8002 23.0854 36.7076V60.2406C23.0854 61.1481 23.8114 61.874 24.7189 61.874H31.3281C32.2355 61.874 32.9615 61.1481 32.9615 60.2406V36.7076C32.9615 35.8002 32.2355 35.0742 31.3281 35.0742H28.0159Z" fill="#AFE2B8"/>
<path id="Vector_3" d="M5.31587 42.8029H11.9554C12.8628 42.8029 13.5887 43.5289 13.5887 44.4363V60.2409C13.5887 61.1484 12.8628 61.8743 11.9554 61.8743H5.31587C4.40843 61.8743 3.6825 61.1484 3.6825 60.2409V44.4363C3.6825 43.5289 4.40843 42.8029 5.31587 42.8029Z" fill="#AFE2B8"/>
<path id="Vector_4" d="M1.97334 27.8466C1.14152 27.8466 0.460938 27.166 0.460938 26.3342C0.460938 25.5024 1.14152 24.8218 1.97334 24.8218C2.12458 24.8218 17.2789 24.7613 30.7242 19.5284C44.0333 14.356 53.8791 1.63663 53.9698 1.51563C54.4689 0.850175 55.4217 0.729183 56.0872 1.22828C56.7527 1.74249 56.8737 2.68019 56.3746 3.34564C55.9511 3.89011 45.939 16.8514 31.8131 22.3415C17.8234 27.7861 2.60855 27.8466 1.97334 27.8466Z" fill="#82C2C2"/>
<path id="Vector_5" d="M55.1802 12.4354C54.3484 12.4354 53.6678 11.7548 53.6678 10.923V3.95079H47.4669C46.6351 3.95079 45.9545 3.27021 45.9545 2.43838C45.9545 1.60656 46.6351 0.92598 47.4669 0.92598H55.1802C56.012 0.92598 56.6926 1.60656 56.6926 2.43838V10.923C56.6926 11.7548 56.012 12.4354 55.1802 12.4354Z" fill="#82C2C2"/>
</g>
</svg>
