<svg width="58" height="77" viewBox="0 0 58 77" fill="none" xmlns="http://www.w3.org/2000/svg">
<g id="Group 13822">
<g id="Group">
<path id="Vector" d="M38.2949 43.3123L33.9209 52.2086L33.0904 53.9009L22.1686 76.1195L22.166 76.1248L16.0815 65.5153L4.38379 67.3847L13.34 49.1625L14.121 47.5743L20.5127 34.5723L27.8443 38.1756L38.2949 43.3123Z" fill="#E29393"/>
<path id="Vector_2" d="M7.68652 64.6471L17.3092 63.1111L22.3132 71.8381L35.5834 44.8472L20.9542 37.6562L7.68652 64.6471Z" stroke="white" stroke-miterlimit="10"/>
</g>
<path id="Vector_3" opacity="0.1" d="M38.6993 38.1719V53.715L36.9784 52.8584L35.5282 55.6338L33.0913 53.8973L22.1694 76.1159V38.1719H38.6993Z" fill="black"/>
<g id="Group_2">
<path id="Vector_4" d="M51.7164 69.0125L40.1879 66.2918L33.3432 76.43L19.659 42.5267L38.0322 35.1092L51.7164 69.0125Z" fill="#E29393"/>
<path id="Vector_5" d="M48.6235 66.0458L39.1388 63.8068L33.51 72.1459L22.2523 44.2542L37.3658 38.1541L48.6235 66.0458Z" stroke="white" stroke-miterlimit="10"/>
</g>
<g id="Group_3">
<path id="Vector_6" d="M57.5641 31.3917L55.0517 33.2558L56.8664 35.8073L54.091 37.2549L55.4839 40.0563L52.5185 41.0534L53.4557 44.0397L50.3705 44.5578L50.8288 47.6534L47.6993 47.6847L47.6681 50.8141L44.5725 50.3559L44.0517 53.4411L41.0681 52.5038L40.0709 55.4692L38.9905 54.9329L37.2695 54.0763L35.8194 56.8517L33.3824 55.1152L33.2705 55.0371L31.4064 57.5495L30.6123 56.771L29.1725 55.3599L26.9361 57.5495L25.0719 55.0371L22.5231 56.8517L22.4606 56.732L21.0729 54.0763L18.2715 55.4692L17.2743 52.5038L14.2907 53.4411L14.2386 53.1313L13.77 50.3559L13.632 50.3767L10.6744 50.8141L10.6431 47.6847L7.51368 47.6534L7.9719 44.5578L4.8867 44.0397L5.82398 41.0534L2.85855 40.0563L4.25144 37.2549L1.47607 35.8073L3.29074 33.2558L0.77832 31.3917L2.9679 29.1579L0.77832 26.9214L3.29074 25.0573L1.47607 22.5084L4.25144 21.0609L2.85855 18.2569L5.82398 17.2623L4.8867 14.276L7.9719 13.7553L7.51368 10.6597L10.6431 10.6285L10.6744 7.49903L13.77 7.95985L14.2907 4.87206L17.2743 5.80933L18.2715 2.8439L21.0729 4.23679L22.5231 1.46402L25.0719 3.27609L26.9361 0.763672L29.1725 2.95585L31.4064 0.763672L33.2705 3.27609L35.8194 1.46402L37.2695 4.23679L40.0709 2.8439L41.0681 5.80933L44.0517 4.87206L44.5725 7.95985L47.6681 7.49903L47.6993 10.6285L50.8288 10.6597L50.3705 13.7553L53.4557 14.276L52.5185 17.2623L55.4839 18.2569L54.091 21.0609L56.8664 22.5084L55.0517 25.0573L57.5641 26.9214L55.3745 29.1579L57.5641 31.3917Z" fill="#F6D39E"/>
<path id="Vector_7" d="M29.372 53.9062C42.8609 53.9062 53.7958 42.9713 53.7958 29.4824C53.7958 15.9935 42.8609 5.05859 29.372 5.05859C15.8832 5.05859 4.94824 15.9935 4.94824 29.4824C4.94824 42.9713 15.8832 53.9062 29.372 53.9062Z" fill="#E5C38F"/>
</g>
<path id="Vector_8" d="M20.6153 29.3172C20.2873 29.4656 20.4148 38.1952 20.5502 38.3514C20.6856 38.5077 21.9665 38.0859 22.7815 37.9974C23.6354 37.9062 24.8773 37.8047 25.1429 37.875C25.4084 37.9453 25.5646 38.2968 25.8692 38.5155C26.1921 38.7472 26.304 38.8591 26.7518 39.0205C27.1997 39.182 30.6415 38.9034 32.8233 38.9268C33.9819 38.9398 35.5961 38.9424 35.9215 38.7836C36.713 38.3905 36.5333 33.186 36.7156 30.3325C36.7156 30.3325 37.632 30.1789 37.8429 29.9732C38.0538 29.7676 37.9106 27.3567 37.5331 27.1588C37.1556 26.9609 35.229 26.9193 33.9142 26.8985C32.1776 26.8672 29.5116 27.315 29.2304 27.1484C28.9492 26.9818 29.0898 24.6985 28.9518 23.3811C28.8139 22.0741 28.642 19.8012 28.4494 19.671C28.2567 19.5409 27.9599 19.4367 27.6266 19.3534C26.9263 19.1816 26.0541 19.2336 25.9734 19.343C25.8927 19.4523 25.8432 23.2275 25.6115 25.3806C25.4527 26.8542 25.1767 29.3796 25.0153 29.5645C24.8539 29.7493 20.9512 29.174 20.6231 29.3198L20.6153 29.3172Z" fill="white"/>
</g>
</svg>
